<svg width="27" height="30" fill="none" xmlns="http://www.w3.org/2000/svg"><g clip-path="url(#a)"><path d="M9.1 18.656c1.007 0 1.828-.357 1.828-1.488 0-1.154-.686-1.605-1.776-1.611H6.457v3.1H9.1Zm-.317-7.593h-2.32v2.624h2.502c.885 0 1.512-.386 1.512-1.341 0-1.037-.803-1.284-1.694-1.284Zm7.588 4.382h3.645c-.1-1.084-.662-1.74-1.787-1.74-1.073 0-1.788.668-1.858 1.74ZM22.5 1.875H3.75A3.753 3.753 0 0 0 0 5.625v18.75a3.753 3.753 0 0 0 3.75 3.75H22.5a3.753 3.753 0 0 0 3.75-3.75V5.625a3.753 3.753 0 0 0-3.75-3.75Zm-2.021 8.965h-4.56V9.732h4.56v1.108Zm-9.13 3.44c1.383.392 2.051 1.61 2.051 3.023 0 2.285-1.916 3.263-3.96 3.275H3.983V9.328h5.303c1.928 0 3.598.545 3.598 2.783 0 1.131-.528 1.688-1.535 2.168Zm6.956-2.262c2.549 0 3.96 2.01 3.96 4.418 0 .093-.005.193-.011.293 0 .046-.006.087-.006.128h-5.871c0 1.301.686 2.069 1.998 2.069.68 0 1.553-.363 1.77-1.06h1.974c-.61 1.868-1.869 2.741-3.814 2.741-2.567 0-4.166-1.74-4.166-4.277 0-2.45 1.681-4.312 4.166-4.312Z" fill="#fff"/></g><defs><clipPath id="a"><path fill="#fff" d="M0 0h26.25v30H0z"/></clipPath></defs></svg>