<svg width="40" height="35" viewBox="0 0 40 35" fill="none" xmlns="http://www.w3.org/2000/svg">
<path d="M5 0C2.24219 0 0 2.24219 0 5V30C0 32.7578 2.24219 35 5 35H35C37.7578 35 40 32.7578 40 30V5C40 2.24219 37.7578 0 35 0H5ZM13.6719 11.1719C14.4062 10.4375 15.5937 10.4375 16.3203 11.1719L19.9922 14.8438L23.6641 11.1719C24.3984 10.4375 25.5859 10.4375 26.3125 11.1719C27.0391 11.9062 27.0469 13.0937 26.3125 13.8203L22.6406 17.4922L26.3125 21.1641C27.0469 21.8984 27.0469 23.0859 26.3125 23.8125C25.5781 24.5391 24.3906 24.5469 23.6641 23.8125L19.9922 20.1406L16.3203 23.8125C15.5859 24.5469 14.3984 24.5469 13.6719 23.8125C12.9453 23.0781 12.9375 21.8906 13.6719 21.1641L17.3438 17.4922L13.6719 13.8203C12.9375 13.0859 12.9375 11.8984 13.6719 11.1719Z" fill="#FFC107"/>
</svg>
