<svg width="21" height="21" viewBox="0 0 21 21" fill="none" xmlns="http://www.w3.org/2000/svg">
<path d="M20.3329 4.34059C21.1138 3.55971 21.1138 2.29155 20.3329 1.51067C19.552 0.729782 18.2839 0.729782 17.503 1.51067L10.9248 8.09508L4.34039 1.51691C3.55951 0.736029 2.29135 0.736029 1.51047 1.51691C0.729584 2.2978 0.729584 3.56595 1.51047 4.34684L8.09488 10.925L1.51671 17.5094C0.735831 18.2903 0.735831 19.5585 1.51671 20.3393C2.2976 21.1202 3.56575 21.1202 4.34664 20.3393L10.9248 13.7549L17.5092 20.3331C18.2901 21.114 19.5583 21.114 20.3391 20.3331C21.12 19.5522 21.12 18.2841 20.3391 17.5032L13.7547 10.925L20.3329 4.34059Z" fill="white"/>
</svg>
