<svg width="27" height="30" fill="none" xmlns="http://www.w3.org/2000/svg"><g clip-path="url(#a)"><path d="M13.13 8.262a6.722 6.722 0 0 0-6.732 6.732 6.722 6.722 0 0 0 6.733 6.733 6.722 6.722 0 0 0 6.732-6.733 6.722 6.722 0 0 0-6.732-6.732Zm0 11.11a4.385 4.385 0 0 1-4.376-4.378 4.381 4.381 0 0 1 4.377-4.377 4.381 4.381 0 0 1 4.377 4.377 4.385 4.385 0 0 1-4.377 4.377Zm8.58-11.387c0 .873-.703 1.57-1.57 1.57a1.57 1.57 0 1 1 1.57-1.57Zm4.459 1.594c-.1-2.103-.58-3.967-2.121-5.502-1.535-1.535-3.399-2.016-5.502-2.121-2.168-.123-8.666-.123-10.834 0-2.098.1-3.961.58-5.502 2.115C.668 5.607.193 7.471.088 9.574c-.123 2.168-.123 8.666 0 10.834.1 2.104.58 3.967 2.121 5.502 1.541 1.535 3.398 2.016 5.502 2.121 2.168.123 8.666.123 10.834 0 2.103-.1 3.967-.58 5.502-2.12 1.535-1.536 2.015-3.4 2.121-5.503.123-2.168.123-8.66 0-10.828Zm-2.8 13.154a4.431 4.431 0 0 1-2.497 2.496c-1.728.686-5.83.528-7.74.528-1.91 0-6.018.152-7.74-.527a4.432 4.432 0 0 1-2.496-2.497c-.686-1.728-.528-5.83-.528-7.74 0-1.91-.152-6.017.528-7.74A4.431 4.431 0 0 1 5.39 4.758c1.728-.686 5.83-.528 7.74-.528 1.91 0 6.017-.152 7.74.528a4.431 4.431 0 0 1 2.496 2.496c.686 1.728.527 5.83.527 7.74 0 1.91.159 6.018-.527 7.74Z" fill="#fff"/></g><defs><clipPath id="a"><path fill="#fff" d="M0 0h26.25v30H0z"/></clipPath></defs></svg>