<svg width="40" height="32" fill="none" xmlns="http://www.w3.org/2000/svg"><path d="M20 .222C14.39.222 9.896 2.778 6.625 5.82c-3.25 3.014-5.423 6.625-6.451 9.105a2.2 2.2 0 0 0 0 1.708c1.028 2.48 3.201 6.09 6.451 9.104C9.896 28.778 14.39 31.333 20 31.333s10.104-2.555 13.375-5.597c3.25-3.02 5.424-6.625 6.459-9.104a2.21 2.21 0 0 0 0-1.708c-1.035-2.48-3.209-6.09-6.459-9.105C30.105 2.778 25.611.222 20 .222ZM10 15.778a10 10 0 1 1 20 0 10 10 0 0 1-20 0Zm10-4.445a4.449 4.449 0 0 1-5.854 4.216c-.382-.125-.826.11-.812.514a6.67 6.67 0 0 0 8.389 6.153 6.67 6.67 0 0 0 4.715-8.167 6.665 6.665 0 0 0-6.153-4.938c-.403-.014-.639.424-.514.813a4.5 4.5 0 0 1 .23 1.41Z" fill="#FFC107"/></svg>