<svg width="26" height="30" fill="none" xmlns="http://www.w3.org/2000/svg"><g clip-path="url(#a)"><path d="M0 5.625C0 4.588.817 3.75 1.828 3.75h21.938c1.01 0 1.828.838 1.828 1.875S24.777 7.5 23.766 7.5H1.828C.817 7.5 0 6.662 0 5.625ZM0 15c0-1.037.817-1.875 1.828-1.875h21.938c1.01 0 1.828.838 1.828 1.875s-.817 1.875-1.828 1.875H1.828C.817 16.875 0 16.037 0 15Zm25.594 9.375c0 1.037-.817 1.875-1.828 1.875H1.828C.817 26.25 0 25.412 0 24.375S.817 22.5 1.828 22.5h21.938c1.01 0 1.828.838 1.828 1.875Z" fill="#FFC107"/></g><defs><clipPath id="a"><path fill="#fff" d="M0 0h25.594v30H0z"/></clipPath></defs></svg>