<svg width="26" height="30" viewBox="0 0 26 30" fill="none" xmlns="http://www.w3.org/2000/svg">
<g clip-path="url(#clip0_70_52)">
<path d="M0 5.625C0 4.58789 0.816943 3.75 1.82812 3.75H23.7656C24.7768 3.75 25.5937 4.58789 25.5937 5.625C25.5937 6.66211 24.7768 7.5 23.7656 7.5H1.82812C0.816943 7.5 0 6.66211 0 5.625ZM0 15C0 13.9629 0.816943 13.125 1.82812 13.125H23.7656C24.7768 13.125 25.5937 13.9629 25.5937 15C25.5937 16.0371 24.7768 16.875 23.7656 16.875H1.82812C0.816943 16.875 0 16.0371 0 15ZM25.5937 24.375C25.5937 25.4121 24.7768 26.25 23.7656 26.25H1.82812C0.816943 26.25 0 25.4121 0 24.375C0 23.3379 0.816943 22.5 1.82812 22.5H23.7656C24.7768 22.5 25.5937 23.3379 25.5937 24.375Z" fill="white"/>
</g>
<defs>
<clipPath id="clip0_70_52">
<rect width="25.5937" height="30" fill="white"/>
</clipPath>
</defs>
</svg>
