<svg width="30" height="30" fill="none" xmlns="http://www.w3.org/2000/svg"><g clip-path="url(#a)"><path d="M9.662 1.441A2.336 2.336 0 0 0 6.885.082L1.729 1.488A2.35 2.35 0 0 0 0 3.75C0 18.246 11.754 30 26.25 30a2.35 2.35 0 0 0 2.262-1.729l1.406-5.156a2.337 2.337 0 0 0-1.36-2.777l-5.624-2.344a2.336 2.336 0 0 0-2.713.68l-2.367 2.889a19.803 19.803 0 0 1-9.416-9.416l2.888-2.362a2.339 2.339 0 0 0 .68-2.713L9.662 1.447v-.006Z" fill="#FFC107"/></g><defs><clipPath id="a"><path fill="#fff" d="M0 0h30v30H0z"/></clipPath></defs></svg>