<svg width="30" height="30" fill="none" xmlns="http://www.w3.org/2000/svg"><g clip-path="url(#a)"><path d="M14.531.469C6.504.469 0 6.973 0 15c0 8.027 6.504 14.531 14.531 14.531 8.028 0 14.531-6.504 14.531-14.531 0-8.027-6.503-14.531-14.53-14.531Zm6.739 9.885c-.217 2.296-1.166 7.875-1.647 10.447-.205 1.09-.604 1.453-.99 1.488-.844.076-1.483-.557-2.303-1.096-1.277-.838-2.004-1.359-3.24-2.18-1.436-.943-.504-1.464.31-2.314.217-.222 3.932-3.603 4.002-3.908.012-.041.018-.182-.07-.258-.088-.076-.21-.047-.299-.03-.129.028-2.172 1.378-6.129 4.05-.578.398-1.103.591-1.576.58-.521-.012-1.517-.293-2.262-.533-.908-.293-1.634-.452-1.57-.956.031-.261.393-.529 1.084-.802 4.235-1.844 7.059-3.06 8.473-3.65 4.037-1.676 4.875-1.97 5.42-1.981.123 0 .386.03.562.17.115.1.188.24.205.392.032.192.042.387.03.58Z" fill="#fff"/></g><defs><clipPath id="a"><path fill="#fff" d="M0 0h29.063v30H0z"/></clipPath></defs></svg>