<svg width="30" height="30" fill="none" xmlns="http://www.w3.org/2000/svg"><g clip-path="url(#a)"><path d="M26.918 8.889c.018.263.018.533.018.797 0 8.127-6.188 17.496-17.497 17.496-3.486 0-6.72-1.008-9.439-2.76.492.058.973.076 1.482.076 2.877 0 5.52-.973 7.635-2.625a6.161 6.161 0 0 1-5.748-4.266c.381.059.762.094 1.16.094a6.44 6.44 0 0 0 1.617-.21 6.145 6.145 0 0 1-4.927-6.036v-.076c.82.457 1.77.744 2.777.78a6.137 6.137 0 0 1-2.742-5.122 6.11 6.11 0 0 1 .838-3.105 17.466 17.466 0 0 0 12.68 6.433 7.026 7.026 0 0 1-.153-1.406 6.145 6.145 0 0 1 6.147-6.146c1.77 0 3.369.744 4.494 1.939a12.05 12.05 0 0 0 3.902-1.482 6.137 6.137 0 0 1-2.701 3.386A12.39 12.39 0 0 0 30 5.707a13.355 13.355 0 0 1-3.082 3.182Z" fill="#fff"/></g><defs><clipPath id="a"><path fill="#fff" d="M0 0h30v30H0z"/></clipPath></defs></svg>