<svg width="30" height="30" viewBox="0 0 30 30" fill="none" xmlns="http://www.w3.org/2000/svg">
<g clip-path="url(#clip0_70_81)">
<path d="M26.918 8.88867C26.9355 9.15234 26.9355 9.42188 26.9355 9.68555C26.9355 17.8125 20.748 27.1816 9.43945 27.1816C5.95313 27.1816 2.71875 26.1738 0 24.4219C0.492187 24.4805 0.972656 24.498 1.48242 24.498C4.35937 24.498 7.00195 23.5254 9.11719 21.873C6.41602 21.8145 4.14844 20.0449 3.36914 17.6074C3.75 17.666 4.13086 17.7012 4.5293 17.7012C5.08008 17.7012 5.63086 17.625 6.14648 17.4902C3.32813 16.9219 1.21875 14.4434 1.21875 11.4551V11.3789C2.03906 11.8359 2.98828 12.123 3.99609 12.1582C2.33789 11.0566 1.25391 9.16992 1.25391 7.03711C1.25391 5.89453 1.55859 4.8457 2.0918 3.93164C5.12109 7.66406 9.66797 10.1016 14.7715 10.3652C14.6777 9.9082 14.6191 9.43359 14.6191 8.95898C14.6191 5.57227 17.3613 2.8125 20.7656 2.8125C22.5352 2.8125 24.1348 3.55664 25.2598 4.75195C26.6484 4.48828 27.9844 3.97266 29.1621 3.26953C28.7051 4.69922 27.7324 5.89453 26.4609 6.65625C27.6973 6.52148 28.8984 6.18164 30 5.70703C29.1621 6.92578 28.1133 8.00977 26.918 8.88867Z" fill="white"/>
</g>
<defs>
<clipPath id="clip0_70_81">
<rect width="30" height="30" fill="white"/>
</clipPath>
</defs>
</svg>
