<svg width="27" height="30" fill="none" xmlns="http://www.w3.org/2000/svg"><g clip-path="url(#a)"><path d="M22.318 5.69a12.91 12.91 0 0 0-9.199-3.815C5.947 1.875.111 7.711.111 14.883c0 2.29.598 4.53 1.735 6.504L0 28.125l6.896-1.81a12.968 12.968 0 0 0 6.217 1.581h.006c7.166 0 13.131-5.835 13.131-13.007 0-3.475-1.477-6.739-3.932-9.2ZM13.12 25.704c-1.945 0-3.85-.521-5.508-1.506l-.392-.234-4.09 1.072 1.09-3.99-.258-.41a10.776 10.776 0 0 1-1.652-5.754c0-5.96 4.851-10.81 10.816-10.81 2.889 0 5.602 1.124 7.64 3.17 2.04 2.044 3.294 4.757 3.288 7.646 0 5.965-4.975 10.816-10.934 10.816Zm5.93-8.098c-.322-.164-1.922-.949-2.22-1.054-.3-.112-.517-.164-.733.164-.217.328-.838 1.055-1.031 1.277-.188.217-.381.246-.704.082-1.91-.955-3.164-1.705-4.424-3.867-.333-.574.335-.533.956-1.775.105-.217.052-.405-.03-.569-.082-.164-.732-1.763-1.002-2.414-.263-.633-.533-.545-.732-.556-.188-.012-.404-.012-.621-.012-.217 0-.569.082-.867.404-.3.328-1.137 1.113-1.137 2.713s1.166 3.146 1.324 3.363c.164.217 2.291 3.498 5.555 4.91 2.062.891 2.87.967 3.902.815.627-.094 1.922-.785 2.192-1.547.27-.762.27-1.412.187-1.547-.076-.146-.293-.228-.615-.387Z" fill="#fff"/></g><defs><clipPath id="a"><path fill="#fff" d="M0 0h26.25v30H0z"/></clipPath></defs></svg>