<?xml version="1.0" standalone="no"?>
<!DOCTYPE svg PUBLIC "-//W3C//DTD SVG 20010904//EN"
 "http://www.w3.org/TR/2001/REC-SVG-20010904/DTD/svg10.dtd">
<svg version="1.0" xmlns="http://www.w3.org/2000/svg"
 width="969.000000pt" height="969.000000pt" viewBox="0 0 969.000000 969.000000"
 preserveAspectRatio="xMidYMid meet">
<metadata>
Created by potrace 1.14, written by Peter Selinger 2001-2017
</metadata>
<g transform="translate(0.000000,969.000000) scale(0.100000,-0.100000)"
fill="#000000" stroke="none">
<path d="M2650 8978 c-11 -15 -20 -30 -20 -34 0 -3 -13 -26 -30 -51 -16 -24
-30 -46 -30 -49 0 -2 -12 -23 -27 -47 -15 -23 -33 -51 -39 -62 -39 -71 -60
-105 -85 -142 -16 -23 -29 -44 -29 -48 0 -3 -17 -32 -37 -63 -20 -31 -41 -66
-48 -77 -8 -16 -83 -142 -150 -253 -6 -9 -32 -53 -58 -97 -64 -108 -68 -114
-99 -163 -16 -24 -28 -45 -28 -47 0 -3 -16 -29 -35 -59 -19 -30 -35 -60 -35
-66 0 -5 -4 -10 -9 -10 -5 0 -14 -12 -20 -27 -6 -16 -25 -48 -41 -73 -16 -25
-33 -52 -37 -60 -5 -8 -51 -86 -103 -172 -52 -87 -100 -166 -105 -175 -6 -10
-93 -157 -195 -326 -102 -169 -192 -320 -201 -335 -9 -15 -143 -238 -299 -497
-155 -258 -290 -483 -300 -500 -39 -67 -282 -471 -290 -480 -29 -36 -92 -178
-123 -275 -61 -191 -122 -473 -142 -650 -4 -30 -8 -68 -10 -85 -34 -254 -23
-675 24 -935 5 -30 12 -71 16 -90 12 -66 56 -234 88 -330 17 -52 31 -97 32
-100 1 -3 6 -16 12 -30 6 -14 23 -54 38 -90 37 -87 109 -228 163 -320 47 -78
178 -268 197 -285 6 -5 29 -32 50 -60 51 -66 273 -288 355 -355 36 -29 67 -56
70 -59 26 -32 307 -221 451 -304 346 -198 764 -348 1069 -383 30 -3 57 -8 60
-10 4 -1 49 -6 100 -10 159 -13 365 -9 545 10 217 23 564 119 774 213 102 45
255 121 326 161 72 41 333 208 345 222 3 3 32 25 65 49 194 144 475 407 552
516 12 17 209 343 438 725 230 382 418 696 420 698 2 2 488 -798 550 -906 14
-24 77 -129 95 -158 14 -23 726 -1203 753 -1249 7 -11 27 -43 45 -72 17 -30
32 -56 32 -60 0 -3 11 -21 25 -39 14 -18 25 -36 26 -41 0 -4 10 -24 23 -43
l23 -35 942 0 c519 0 945 3 947 6 2 4 -9 26 -25 50 -15 24 -102 168 -191 319
-90 151 -195 329 -235 395 -162 270 -389 651 -400 670 -8 16 -192 323 -236
395 -5 8 -62 105 -127 215 -65 110 -188 317 -274 460 -85 143 -221 373 -303
510 -81 138 -158 266 -170 285 -25 38 -173 288 -203 342 -25 44 -80 135 -107
178 -12 19 -68 113 -125 208 l-102 173 79 130 c43 71 89 149 102 172 13 23 38
65 55 92 17 28 38 61 46 75 33 58 80 136 88 145 4 6 25 39 45 75 21 36 49 83
63 105 13 22 29 49 34 60 11 23 33 58 40 65 3 3 11 15 18 28 26 47 37 66 45
76 4 6 22 36 40 66 18 30 39 64 45 75 63 103 192 318 237 395 30 52 127 214
214 359 88 145 162 268 165 275 3 6 51 85 106 175 55 91 100 169 100 173 0 4
4 8 9 8 5 0 11 6 13 13 2 6 46 83 98 170 105 174 101 167 149 252 19 33 37 62
40 65 3 3 13 18 21 33 8 15 149 251 314 523 164 272 296 497 294 499 -2 2
-411 5 -910 7 l-907 4 -258 -429 c-142 -236 -269 -448 -283 -471 -14 -24 -54
-91 -90 -150 -63 -104 -81 -134 -117 -196 -10 -16 -61 -100 -113 -187 -52 -87
-96 -164 -98 -170 -2 -7 -7 -13 -12 -13 -4 0 -13 -12 -19 -27 -6 -16 -25 -48
-41 -73 -16 -25 -33 -52 -37 -60 -5 -8 -51 -86 -103 -172 -52 -87 -100 -166
-105 -175 -6 -10 -143 -238 -305 -508 -162 -269 -300 -499 -306 -510 -6 -11
-61 -102 -122 -203 -62 -100 -112 -186 -112 -191 0 -5 -4 -11 -8 -13 -7 -3
-26 -35 -103 -168 -8 -14 -17 -27 -20 -30 -3 -3 -12 -17 -20 -32 -8 -15 -52
-90 -99 -168 -47 -78 -92 -153 -100 -168 -8 -14 -21 -32 -27 -40 -7 -7 -13
-19 -13 -26 0 -8 -6 -19 -14 -25 -8 -7 -22 -26 -31 -44 -18 -36 -25 -48 -178
-302 -102 -169 -287 -477 -613 -1020 -76 -126 -145 -242 -154 -256 -122 -211
-303 -499 -330 -527 -108 -108 -371 -246 -567 -296 -184 -47 -409 -56 -588
-21 -227 43 -481 158 -685 309 -309 229 -510 551 -564 901 -2 17 -7 49 -11 73
-19 121 0 407 34 494 5 14 54 100 108 190 54 90 102 171 108 181 5 9 53 88
105 174 52 87 97 162 99 168 2 5 21 36 43 68 21 32 38 61 38 63 0 3 16 30 35
60 19 30 35 59 35 64 0 6 4 10 9 10 5 0 11 8 15 18 3 9 14 31 24 47 11 17 172
284 359 595 187 311 351 584 366 607 15 24 27 47 27 53 0 5 5 10 10 10 6 0 10
4 10 8 0 5 23 46 51 93 27 46 54 91 59 99 5 8 32 53 61 100 28 47 59 99 69
115 21 37 579 965 679 1130 40 66 85 140 99 165 14 25 45 75 69 113 24 37 43
70 43 73 0 3 27 48 60 101 33 52 60 97 60 98 0 2 23 41 52 87 28 46 56 92 62
103 6 11 48 81 94 156 45 76 82 139 82 140 0 2 -421 4 -935 4 l-935 0 -20 -27z"/>
</g>
</svg>
