<?xml version="1.0" standalone="no"?>
<!DOCTYPE svg PUBLIC "-//W3C//DTD SVG 20010904//EN"
 "http://www.w3.org/TR/2001/REC-SVG-20010904/DTD/svg10.dtd">
<svg version="1.0" xmlns="http://www.w3.org/2000/svg"
 width="1136.000000pt" height="1136.000000pt" viewBox="0 0 1136.000000 1136.000000"
 preserveAspectRatio="xMidYMid meet">
<metadata>
Created by potrace 1.14, written by Peter Selinger 2001-2017
</metadata>
<g transform="translate(0.000000,1136.000000) scale(0.100000,-0.100000)"
fill="#000000" stroke="none">
<path d="M270 8204 c-34 -7 -52 -36 -41 -67 15 -38 22 -40 239 -52 189 -10
310 -69 360 -175 51 -109 55 -212 56 -1362 1 -532 4 -968 6 -971 7 -5 303
-103 385 -126 99 -29 313 -82 349 -87 17 -2 46 -7 64 -10 17 -4 32 -2 33 2 1
5 2 495 4 1089 2 1045 6 1239 26 1354 5 30 7 56 5 58 -2 3 2 16 9 30 8 15 12
30 9 35 -3 4 -1 8 5 8 5 0 12 8 15 18 17 53 102 112 181 127 46 8 123 18 145
18 8 0 20 4 27 9 6 5 14 5 17 0 6 -10 36 -9 54 2 6 4 12 4 12 0 0 -4 11 3 24
15 31 29 23 58 -21 76 -43 18 -46 18 -37 3 6 -10 4 -10 -7 0 -7 6 -21 12 -31
12 -10 0 -18 -6 -18 -12 0 -9 -2 -10 -8 -2 -9 15 -63 15 -81 0 -10 -7 -13 -7
-8 0 9 15 -53 16 -72 1 -10 -8 -13 -9 -8 -1 5 9 -15 11 -72 9 -44 -2 -84 -6
-90 -9 -5 -4 -12 -2 -15 3 -3 4 -23 6 -43 2 -48 -8 -551 -8 -1058 1 -214 3
-401 4 -415 2z"/>
<path d="M3744 8197 c-36 -17 -45 -33 -33 -64 11 -29 56 -40 199 -47 300 -15
395 -95 426 -356 4 -30 9 -582 11 -1226 l4 -1172 -78 -30 c-312 -119 -749
-240 -998 -276 -22 -4 -65 -11 -95 -16 -30 -5 -77 -12 -105 -15 -27 -4 -60 -8
-73 -10 -12 -2 -62 -7 -110 -10 -48 -3 -109 -8 -137 -10 -64 -5 -398 -6 -450
-1 -22 3 -83 7 -135 10 -224 15 -663 94 -895 161 -329 96 -667 215 -853 301
-29 13 -55 24 -57 24 -3 0 -24 9 -48 19 -23 11 -64 29 -92 40 -50 21 -50 21
-25 0 14 -11 33 -27 43 -35 9 -7 19 -14 22 -14 6 0 117 -71 125 -80 8 -8 192
-117 268 -158 37 -20 103 -55 147 -78 l80 -43 6 -48 c3 -26 9 -84 13 -128 10
-111 32 -268 51 -356 9 -41 18 -83 20 -95 3 -11 19 -68 36 -125 84 -283 226
-530 405 -705 71 -69 161 -144 173 -144 6 0 11 -4 11 -8 0 -4 14 -17 31 -27
17 -11 48 -30 68 -43 154 -98 433 -201 641 -238 117 -21 145 -24 330 -40 77
-6 412 -5 480 1 223 21 386 54 540 110 112 40 329 146 385 188 5 4 35 25 65
47 265 191 410 361 542 636 27 56 57 126 66 155 17 47 23 54 58 65 255 80 410
138 615 229 116 52 413 199 529 262 77 41 360 191 484 257 38 20 72 33 75 30
14 -13 1 -1044 -14 -1244 -5 -62 -18 -182 -20 -190 -1 -3 -5 -27 -10 -55 -19
-119 -67 -210 -126 -241 -37 -19 -163 -41 -244 -43 -84 -2 -116 -9 -132 -29
-20 -27 -11 -53 27 -74 33 -18 51 -19 335 -12 341 9 732 10 1241 3 362 -4 393
-1 408 36 17 45 -26 74 -108 74 -137 1 -319 27 -371 53 -94 48 -140 145 -159
338 -14 134 -20 649 -17 1517 l1 241 82 28 82 27 25 -30 c38 -43 67 -78 151
-178 41 -50 84 -101 96 -115 12 -14 54 -63 94 -110 40 -47 84 -99 99 -115 31
-36 128 -149 156 -184 11 -13 29 -33 40 -45 11 -12 30 -34 42 -50 13 -15 42
-50 65 -76 63 -69 150 -169 173 -198 11 -13 34 -39 50 -56 17 -18 48 -53 70
-78 130 -147 162 -184 185 -208 14 -14 56 -62 95 -106 38 -43 135 -144 215
-224 137 -137 190 -185 285 -260 22 -17 47 -36 55 -43 168 -136 377 -215 625
-236 138 -12 1035 -12 1075 -1 38 11 60 34 60 62 0 23 -27 37 -87 43 -68 6
-129 16 -183 30 -11 3 -30 7 -42 10 -50 11 -178 60 -273 105 -92 43 -304 178
-366 232 -15 13 -42 35 -60 50 -132 104 -541 500 -814 789 -152 160 -257 273
-325 347 -36 40 -92 100 -125 135 -33 35 -96 103 -140 152 -44 48 -97 106
-117 127 -21 22 -38 41 -38 43 0 3 -61 70 -131 146 -20 21 -35 39 -32 39 2 0
-13 17 -34 38 -55 54 -113 123 -113 133 0 5 6 9 13 10 6 0 19 2 27 3 8 2 40 6
70 10 30 3 75 8 100 11 25 3 60 7 78 9 33 3 56 15 31 17 -8 0 -27 2 -44 4
-138 15 -249 20 -425 20 -265 -1 -309 -5 -645 -61 -177 -30 -529 -140 -790
-249 -214 -88 -606 -282 -950 -470 -134 -73 -575 -294 -575 -288 0 3 -6 1 -12
-5 -13 -10 -213 -102 -233 -106 -5 -1 -28 -10 -49 -19 -226 -98 -628 -208
-921 -251 -23 -4 -50 -8 -60 -10 -11 -2 -54 -7 -95 -11 -41 -4 -83 -9 -92 -11
-31 -5 -274 -20 -390 -23 -45 -1 -67 -5 -58 -10 17 -9 108 -27 185 -36 28 -4
61 -8 75 -11 77 -13 224 -19 452 -18 l256 1 -13 -36 c-61 -172 -226 -373 -396
-484 -150 -98 -265 -146 -448 -189 -112 -26 -416 -33 -537 -13 -108 18 -151
29 -249 64 -11 4 -54 24 -95 44 -235 114 -423 302 -543 542 -69 139 -139 388
-154 552 l-6 62 39 -10 c166 -39 340 -73 494 -95 146 -20 354 -30 585 -28 143
1 271 5 285 7 14 3 57 8 95 12 163 16 247 29 440 67 33 7 62 13 65 13 121 23
324 78 595 163 87 27 391 136 440 157 17 8 55 23 85 34 30 12 64 26 75 31 11
5 81 34 155 65 74 31 150 63 168 71 17 7 47 20 65 28 86 38 337 151 412 186
33 15 80 37 105 48 25 11 86 39 135 62 420 195 889 390 1180 490 129 44 358
115 405 125 8 2 58 15 110 29 241 65 503 110 825 142 100 10 602 12 671 3 33
-4 95 -10 139 -13 44 -3 94 -8 110 -10 108 -16 156 -23 205 -30 19 -3 82 -14
140 -25 89 -17 137 -28 261 -56 44 -10 226 -57 239 -62 8 -3 23 -8 32 -9 10
-2 43 -12 75 -23 32 -10 92 -29 133 -41 41 -12 93 -28 115 -37 22 -8 60 -21
85 -29 25 -8 54 -19 65 -24 11 -4 47 -18 80 -30 141 -52 172 -64 200 -76 17
-7 50 -20 75 -29 25 -9 57 -23 73 -31 15 -8 27 -13 27 -11 0 5 -194 131 -235
153 -11 6 -40 22 -65 36 -133 75 -213 118 -221 118 -5 0 -9 5 -9 10 0 6 -3 9
-7 8 -5 -1 -66 26 -136 60 -70 34 -134 62 -142 62 -8 0 -15 5 -15 10 0 6 -6
10 -12 10 -7 0 -58 18 -113 41 -253 103 -481 181 -597 203 -12 2 -35 9 -50 15
-16 6 -28 8 -28 6 0 -2 -12 0 -26 6 -15 5 -43 12 -62 15 -19 3 -46 10 -59 15
-13 5 -23 6 -23 4 0 -2 -10 -1 -23 4 -13 5 -52 12 -87 16 -36 4 -68 9 -71 11
-9 5 -127 23 -199 29 -36 4 -72 8 -80 10 -8 2 -73 7 -145 11 -71 4 -137 8
-145 10 -8 1 -48 3 -87 3 -40 1 -73 5 -73 10 0 9 327 337 672 676 234 229 316
305 328 305 5 0 10 4 12 9 9 23 293 221 317 221 6 0 11 4 11 10 0 5 3 9 8 8 4
-1 34 12 67 29 119 60 325 113 443 113 100 0 156 34 131 81 -20 38 -59 42
-307 33 -300 -10 -794 -11 -1072 -1 -237 9 -262 5 -268 -44 -4 -33 18 -56 68
-69 22 -6 52 -21 67 -34 25 -22 28 -32 30 -91 1 -55 -3 -75 -27 -120 -25 -48
-114 -171 -166 -231 -11 -12 -32 -38 -48 -59 -16 -20 -41 -50 -55 -65 -14 -16
-43 -48 -63 -72 -20 -24 -67 -75 -105 -114 -37 -40 -130 -137 -206 -217 -76
-80 -171 -179 -210 -219 -39 -40 -90 -95 -114 -121 -24 -26 -43 -45 -43 -41 0
4 -10 -5 -21 -20 -12 -15 -23 -25 -26 -23 -2 3 -21 1 -41 -3 -20 -5 -62 -12
-92 -15 -59 -7 -121 -20 -315 -61 -38 -8 -81 -17 -95 -20 -14 -3 -40 -9 -59
-14 -19 -5 -37 -8 -39 -5 -7 6 -4 915 3 1060 14 290 46 379 160 436 63 31 129
44 254 52 75 5 94 14 105 53 4 14 -1 27 -15 40 -24 21 23 20 -809 13 -212 -2
-543 0 -736 5 -417 10 -447 6 -428 -69 8 -31 59 -42 220 -49 95 -4 139 -11
202 -32 162 -53 210 -138 228 -405 8 -130 11 -1344 3 -1366 -4 -10 -24 -24
-45 -32 -47 -17 -439 -183 -509 -215 -27 -13 -77 -36 -110 -50 -33 -15 -68
-31 -77 -36 -10 -6 -25 -10 -33 -10 -8 0 -15 -4 -15 -10 0 -5 -7 -10 -15 -10
-8 0 -23 -4 -33 -10 -23 -13 -253 -120 -258 -120 -2 0 -60 -27 -130 -60 -69
-33 -128 -60 -130 -60 -2 0 -34 -14 -71 -31 -145 -67 -153 -70 -159 -55 -7 18
2 2070 9 2111 3 17 8 55 12 85 16 144 70 235 162 271 50 20 96 29 183 34 171
11 180 14 194 62 6 18 1 27 -26 44 -32 20 -38 20 -368 13 -447 -10 -524 -10
-950 -1 -307 7 -370 6 -396 -6z"/>
</g>
</svg>
